<svg xmlns="http://www.w3.org/2000/svg" width="166.655" height="91.476" viewBox="0 0 166.655 91.476">
  <g id="logo_full-svg" transform="translate(-372.099 174.46)">
    <path id="Path_1" data-name="Path 1" d="M-.3,38.843l11.353.5L25.81,103.828l14.3-63.192,9.362.415L31.19,120.512l-11.281,1.209Zm61.44,79.3a9.477,9.477,0,0,1-2.132-.5,10.522,10.522,0,0,1-2.043-1.008,13.31,13.31,0,0,1-1.95-1.52,18.271,18.271,0,0,1-1.811-1.966,21.864,21.864,0,0,1-1.623-2.344,27.38,27.38,0,0,1-1.431-2.722q-.667-1.457-1.235-3.1t-1-3.411Q47.5,99.8,47.21,97.916t-.429-3.888q-.143-2-.143-4.118t.137-4.132q.138-2.016.412-3.931t.685-3.723q.41-1.809.957-3.512t1.185-3.226a31.3,31.3,0,0,1,1.374-2.868,25.423,25.423,0,0,1,1.56-2.509,20.989,20.989,0,0,1,1.741-2.151,15.028,15.028,0,0,1,1.877-1.721,11.406,11.406,0,0,1,1.966-1.217,9.564,9.564,0,0,1,2.054-.719,9.374,9.374,0,0,1,2.139-.228,8.795,8.795,0,0,1,4.081,1.021,10.306,10.306,0,0,1,1.834,1.242,13.609,13.609,0,0,1,1.7,1.724,20.225,20.225,0,0,1,1.544,2.129,25.276,25.276,0,0,1,1.363,2.462q.637,1.312,1.186,2.792t1.012,3.124q.462,1.644.808,3.4t.575,3.618q.231,1.864.345,3.843t.115,4.071v3.769L55.17,94.513q.134.841.312,1.636t.4,1.546q.22.751.483,1.455t.568,1.365q.305.659.646,1.239a11.339,11.339,0,0,0,.719,1.082,9.288,9.288,0,0,0,.79.923,8.017,8.017,0,0,0,.861.765,6.664,6.664,0,0,0,.912.59,5.471,5.471,0,0,0,.941.394,5.083,5.083,0,0,0,.97.2,5.285,5.285,0,0,0,1,.01,6.817,6.817,0,0,0,.992-.157,6.626,6.626,0,0,0,.948-.3,6.9,6.9,0,0,0,.905-.444,7.6,7.6,0,0,0,.863-.586,9.225,9.225,0,0,0,.809-.713,10.151,10.151,0,0,0,.747-.825q.358-.441.685-.938t.623-1.051l5.023,8.241q-.663,1.087-1.338,2.041t-1.363,1.777q-.688.824-1.388,1.511a16.319,16.319,0,0,1-1.414,1.242,13.162,13.162,0,0,1-1.475,1,12.43,12.43,0,0,1-3.247,1.314,13.244,13.244,0,0,1-1.775.314,10.3,10.3,0,0,1-1.122.062A9.666,9.666,0,0,1,61.145,118.14Zm1.407-45.977a4.769,4.769,0,0,0-.911.1,4.643,4.643,0,0,0-.87.279,5.179,5.179,0,0,0-.83.455,6.211,6.211,0,0,0-.788.632,8.433,8.433,0,0,0-.737.793,10.072,10.072,0,0,0-.675.937,12.4,12.4,0,0,0-.615,1.081q-.292.578-.553,1.226t-.487,1.355q-.225.707-.416,1.471t-.347,1.589q-.155.823-.275,1.7l14.729-.583q-.1-.821-.239-1.589t-.32-1.489q-.181-.72-.4-1.388t-.484-1.289q-.263-.618-.552-1.172t-.6-1.04a10.73,10.73,0,0,0-.654-.908,8.662,8.662,0,0,0-.706-.775,5.7,5.7,0,0,0-.753-.619,4.638,4.638,0,0,0-.795-.438,4.114,4.114,0,0,0-.838-.258,4.175,4.175,0,0,0-.8-.076Zm19.3,42.918V42.489l7.256-2.027V114.3Zm12.771-1.368V61.124l6.877.039v51.814Zm22.31-1.646a6.808,6.808,0,0,1-1.678-.469,7.993,7.993,0,0,1-1.6-.917,10.8,10.8,0,0,1-1.525-1.37,16.049,16.049,0,0,1-1.414-1.763,20.149,20.149,0,0,1-1.268-2.094,25.923,25.923,0,0,1-1.119-2.425q-.522-1.3-.968-2.757t-.781-3.029q-.336-1.567-.56-3.239t-.337-3.445q-.112-1.773-.112-3.646t.111-3.661q.111-1.787.332-3.488t.553-3.312q.331-1.609.77-3.129t.959-2.877q.518-1.357,1.116-2.554a22.37,22.37,0,0,1,1.272-2.232,18.09,18.09,0,0,1,1.423-1.91,12.7,12.7,0,0,1,1.536-1.526,9.229,9.229,0,0,1,1.609-1.079,7.414,7.414,0,0,1,1.682-.639,7.189,7.189,0,0,1,3.491.025,7.294,7.294,0,0,1,1.643.653,8.941,8.941,0,0,1,1.55,1.074,12.227,12.227,0,0,1,1.459,1.491,17.56,17.56,0,0,1,1.334,1.843,21.694,21.694,0,0,1,1.177,2.131q.549,1.138,1.023,2.421t.871,2.71q.4,1.427.695,2.938t.5,3.1q.2,1.593.3,3.273t.1,3.447q0,1.769-.1,3.454t-.3,3.295q-.2,1.609-.5,3.139t-.695,2.987q-.4,1.458-.87,2.778t-1.019,2.51a24.933,24.933,0,0,1-1.17,2.242A20.5,20.5,0,0,1,125.095,108a13.967,13.967,0,0,1-1.451,1.638,10.331,10.331,0,0,1-1.551,1.231,8.221,8.221,0,0,1-1.653.821,7.585,7.585,0,0,1-1.757.407,7.21,7.21,0,0,1-.789.044A6.763,6.763,0,0,1,116.932,112.068Zm-4.892-23.49q.057.972.168,1.895t.28,1.794q.167.872.392,1.694t.487,1.551q.265.729.569,1.365a11.136,11.136,0,0,0,.649,1.181,8.664,8.664,0,0,0,.728,1,6.113,6.113,0,0,0,.787.78,4.258,4.258,0,0,0,.823.534,3.414,3.414,0,0,0,.862.289,3.357,3.357,0,0,0,.9.045,3.688,3.688,0,0,0,.913-.2,4.049,4.049,0,0,0,.861-.429,5.156,5.156,0,0,0,.809-.661,7.24,7.24,0,0,0,.759-.893,10.982,10.982,0,0,0,.7-1.09,13.863,13.863,0,0,0,.621-1.252q.292-.667.545-1.416t.473-1.578q.217-.83.381-1.7t.272-1.777q.108-.909.162-1.858t.055-1.939q0-1.014-.055-1.972t-.162-1.862q-.109-.9-.272-1.753t-.381-1.645q-.217-.8-.473-1.512t-.545-1.354a12.8,12.8,0,0,0-.621-1.2,10.194,10.194,0,0,0-.7-1.037,6.288,6.288,0,0,0-.759-.837,4.464,4.464,0,0,0-.809-.594,3.569,3.569,0,0,0-.861-.351,3.4,3.4,0,0,0-.913-.106,3.334,3.334,0,0,0-.9.14,3.679,3.679,0,0,0-.862.385,4.864,4.864,0,0,0-.823.633,7.07,7.07,0,0,0-.787.881,10.643,10.643,0,0,0-.728,1.088,13.379,13.379,0,0,0-.649,1.253q-.305.667-.569,1.417t-.487,1.581q-.224.833-.392,1.718t-.28,1.826q-.112.94-.168,1.932t-.056,2.038Q111.984,87.607,112.04,88.578Zm29.321,20.929a8.978,8.978,0,0,1-1.4-.163,8.788,8.788,0,0,1-1.356-.382,9.316,9.316,0,0,1-1.307-.6,10.424,10.424,0,0,1-1.244-.814,11.54,11.54,0,0,1-1.166-1.018,13.612,13.612,0,0,1-1.087-1.223,16.568,16.568,0,0,1-1.007-1.428l2.9-8.648q.477.655.942,1.222t.919,1.046q.454.479.9.871a10.3,10.3,0,0,0,.875.7,6.93,6.93,0,0,0,.861.526,5.4,5.4,0,0,0,.855.354,4.555,4.555,0,0,0,.849.182,4.185,4.185,0,0,0,.842.012,4.608,4.608,0,0,0,.894-.166,3.879,3.879,0,0,0,1.494-.827,4.484,4.484,0,0,0,.6-.661,5.165,5.165,0,0,0,.485-.79,5.42,5.42,0,0,0,.346-.883,6.452,6.452,0,0,0,.208-.977,8.063,8.063,0,0,0,.068-1.073q0-.448-.039-.849a6.3,6.3,0,0,0-.117-.753,4.65,4.65,0,0,0-.194-.66,3.565,3.565,0,0,0-.274-.564,2.745,2.745,0,0,0-.359-.475,2.825,2.825,0,0,0-.453-.392,3.355,3.355,0,0,0-.548-.307,4.126,4.126,0,0,0-.644-.223l-4.109-1.1a7.411,7.411,0,0,1-1.525-.607,7.124,7.124,0,0,1-1.336-.927,7.931,7.931,0,0,1-1.144-1.248,10.069,10.069,0,0,1-.949-1.571,13.379,13.379,0,0,1-.744-1.881,18.174,18.174,0,0,1-.534-2.18q-.213-1.165-.32-2.476t-.107-2.77q0-1.18.071-2.277t.212-2.111q.142-1.014.354-1.944t.494-1.775a17.021,17.021,0,0,1,.622-1.6,13.5,13.5,0,0,1,.737-1.407,10.945,10.945,0,0,1,.85-1.219,9.553,9.553,0,0,1,.962-1.03A7.363,7.363,0,0,1,138.8,61.6a6.588,6.588,0,0,1,2.4-.919,7.4,7.4,0,0,1,1.331-.106,7.473,7.473,0,0,1,1.159.1,7.824,7.824,0,0,1,1.14.278,8.7,8.7,0,0,1,1.12.457,10.1,10.1,0,0,1,1.1.633,10.831,10.831,0,0,1,1.075.814,13.091,13.091,0,0,1,1.036,1q.509.545,1,1.183t.962,1.366l-2.613,7.962q-.429-.593-.849-1.1t-.833-.939q-.412-.428-.814-.774a8.152,8.152,0,0,0-.8-.609,7.046,7.046,0,0,0-.794-.46,5.811,5.811,0,0,0-.8-.326,5.093,5.093,0,0,0-.809-.191,4.991,4.991,0,0,0-.819-.057,3.258,3.258,0,0,0-.725.091,2.753,2.753,0,0,0-.652.248,2.888,2.888,0,0,0-.58.408,3.562,3.562,0,0,0-.5.567,4.311,4.311,0,0,0-.41.7,4.943,4.943,0,0,0-.293.8,6.336,6.336,0,0,0-.176.9,8.264,8.264,0,0,0-.059,1q0,.479.041.907a6.875,6.875,0,0,0,.125.8,4.894,4.894,0,0,0,.209.7,3.631,3.631,0,0,0,.292.59,2.727,2.727,0,0,0,.393.494,3.036,3.036,0,0,0,.511.41,3.825,3.825,0,0,0,.629.325,5.32,5.32,0,0,0,.745.24l4.04,1.2a6.992,6.992,0,0,1,1.478.588,6.781,6.781,0,0,1,1.283.9,7.67,7.67,0,0,1,1.092,1.208,9.779,9.779,0,0,1,.9,1.516,13.1,13.1,0,0,1,.707,1.8,17.368,17.368,0,0,1,.5,2.052q.2,1.089.3,2.309t.1,2.569q0,1.107-.073,2.156t-.22,2.041q-.147.992-.369,1.928t-.517,1.818q-.3.883-.644,1.682t-.75,1.519a14.675,14.675,0,0,1-.858,1.356,12.6,12.6,0,0,1-.967,1.194,9.18,9.18,0,0,1-1.061.995,7.656,7.656,0,0,1-1.142.754,6.92,6.92,0,0,1-1.225.513,7.044,7.044,0,0,1-1.31.27,9.912,9.912,0,0,1-1.083.06Q141.544,109.515,141.361,109.507ZM98.06,54.931a2.168,2.168,0,0,1-.776-.159,2.65,2.65,0,0,1-.723-.447,4.2,4.2,0,0,1-.667-.737,7.227,7.227,0,0,1-.612-1.028,10.1,10.1,0,0,1-.512-1.229,11.386,11.386,0,0,1-.365-1.341,13.249,13.249,0,0,1-.22-1.453q-.073-.755-.073-1.562,0-.834.073-1.6a13.01,13.01,0,0,1,.22-1.459,10.566,10.566,0,0,1,.365-1.319,8.749,8.749,0,0,1,.512-1.176,6.406,6.406,0,0,1,.612-.962,3.753,3.753,0,0,1,.667-.673,2.432,2.432,0,0,1,.723-.386,2.12,2.12,0,0,1,.776-.1,2.332,2.332,0,0,1,.794.183,2.756,2.756,0,0,1,.725.459,4.172,4.172,0,0,1,.659.735,7.018,7.018,0,0,1,.591,1.01,9.807,9.807,0,0,1,.488,1.208,11.538,11.538,0,0,1,.347,1.33,13.993,13.993,0,0,1,.209,1.453q.069.757.069,1.577,0,.8-.069,1.532a13.428,13.428,0,0,1-.209,1.417,11.188,11.188,0,0,1-.347,1.3,9.686,9.686,0,0,1-.488,1.188,6.569,6.569,0,0,1-.591.99,3.8,3.8,0,0,1-.659.7,2.479,2.479,0,0,1-.725.417,2.195,2.195,0,0,1-.748.129Z" transform="translate(373.038 -205.249)" stroke="rgba(0,0,0,0)" stroke-width="1"/>
    <path id="Path_2" data-name="Path 2" d="M9.761,79.98V64.517l-6.43-.125V55.2l6.43.269V40.006l4.05.324V55.638l6.109.255v8.823L13.811,64.6V79.9Z" transform="translate(518.334 -213.925)" fill="#fb0" stroke="rgba(0,0,0,0)" stroke-width="1"/>
  </g>
</svg>
