<svg xmlns="http://www.w3.org/2000/svg" xmlns:xlink="http://www.w3.org/1999/xlink" width="256" height="256" viewBox="0 0 256 256">
  <defs>
    <clipPath id="clip-path">
      <rect id="Rectangle_58" data-name="Rectangle 58" width="90" height="140" fill="#fff"/>
    </clipPath>
  </defs>
  <g id="icon_help" transform="translate(-2433 -926)">
    <rect id="Rectangle_20" data-name="Rectangle 20" width="256" height="256" transform="translate(2433 926)" fill="rgba(255,255,255,0)"/>
    <g id="Group_28" data-name="Group 28" transform="translate(10 10)">
      <rect id="Rectangle_57" data-name="Rectangle 57" width="236" height="236" rx="118" transform="translate(2433 926)" fill="rgba(255,255,255,0.4)"/>
      <g id="Group_29" data-name="Group 29" transform="translate(2506 974)" clip-path="url(#clip-path)">
        <path id="Path_209" data-name="Path 209" d="M30.991,94.9A10,10,0,0,1,21,85.2l-.384-12.461a9.008,9.008,0,0,1,9-9.286,91.061,91.061,0,0,0,13.741-.976,38.007,38.007,0,0,0,11.128-3.319,17.855,17.855,0,0,0,7.454-6.736Q64.65,48.034,64.65,41a20.78,20.78,0,0,0-2.419-10.349,16.557,16.557,0,0,0-6.87-6.639,22.131,22.131,0,0,0-10.454-2.342,22.261,22.261,0,0,0-10.838,2.44A18.085,18.085,0,0,0,27.1,30.753l-.1.184c-2.737,4.923-7.064,9.872-12.7,9.872H9.666c-5.388,0-9.94-4.33-8.8-9.6a39,39,0,0,1,4.367-11.3A38.479,38.479,0,0,1,20.812,5.37Q30.973,0,45.1,0a54.149,54.149,0,0,1,23.32,4.784A36.582,36.582,0,0,1,84.291,18.74Q90,27.917,90,41q0,13.473-5.709,22.259a34.37,34.37,0,0,1-15.87,13.088,62.363,62.363,0,0,1-16.477,4.126,8.02,8.02,0,0,0-7.328,7.412A7.316,7.316,0,0,1,37.305,94.9ZM32.908,140a0,0,0,0,0,0,0A16.148,16.148,0,0,1,21.2,135.6a15.185,15.185,0,0,1,0-21.674,16.153,16.153,0,0,1,11.709-4.388,15.822,15.822,0,0,1,11.612,4.393,15.417,15.417,0,0,1,0,21.674A15.821,15.821,0,0,1,32.91,140,0,0,0,0,1,32.908,140Z" fill="#fff"/>
      </g>
    </g>
  </g>
</svg>
