<svg xmlns="http://www.w3.org/2000/svg" xmlns:xlink="http://www.w3.org/1999/xlink" width="256" height="256" viewBox="0 0 256 256">
  <defs>
    <clipPath id="clip-path">
      <rect x="43" y="31" width="256" height="256" fill="none"/>
    </clipPath>
  </defs>
  <g id="icon_settings" transform="translate(-2979.555 5197.164)">
    <path id="Path_168" data-name="Path 168" d="M-3235.847,5306.305a55.8,55.8,0,0,1-21.857-4.413,55.967,55.967,0,0,1-17.848-12.035,55.972,55.972,0,0,1-12.034-17.848,55.8,55.8,0,0,1-4.413-21.857,55.8,55.8,0,0,1,4.413-21.857,55.964,55.964,0,0,1,12.034-17.849,55.97,55.97,0,0,1,17.848-12.035,55.8,55.8,0,0,1,21.857-4.413,55.8,55.8,0,0,1,21.857,4.413,55.97,55.97,0,0,1,17.848,12.035,55.964,55.964,0,0,1,12.034,17.849,55.808,55.808,0,0,1,4.413,21.857,55.807,55.807,0,0,1-4.413,21.857,55.968,55.968,0,0,1-12.034,17.848,55.964,55.964,0,0,1-17.848,12.035A55.8,55.8,0,0,1-3235.847,5306.305Zm.448-98.379a42.724,42.724,0,0,0-42.675,42.675,42.724,42.724,0,0,0,42.675,42.675,42.724,42.724,0,0,0,42.677-42.675A42.724,42.724,0,0,0-3235.4,5207.926Z" transform="translate(6343.403 -10319.316)" fill="rgba(255,255,255,0.6)"/>
    <path id="Path_167" data-name="Path 167" d="M39.556,65.111A25.556,25.556,0,1,0,14,39.556,25.556,25.556,0,0,0,39.556,65.111Zm0-9.583A15.972,15.972,0,1,0,23.583,39.556,15.972,15.972,0,0,0,39.556,55.528Z" transform="translate(3068 -5108.719)" fill="#fff" fill-rule="evenodd"/>
    <g id="Scroll_Group_1" data-name="Scroll Group 1" transform="translate(2936.555 -5228.164)" clip-path="url(#clip-path)" style="isolation: isolate">
      <path id="Path_169" data-name="Path 169" d="M77.664,225.5c-2.435-1.131-4.78-2.219-7.019-3.486-2.355-1.332-4.357-2.688-6.493-4.136l-.462-.313-11.461,7.15a7.305,7.305,0,0,1-8.687-.412A6.955,6.955,0,0,1,41.581,216L46.7,203.584a145.4,145.4,0,0,1-10.609-12.3L23.21,194.029a7.1,7.1,0,0,1-7.015-11.813l9.134-10.01a89.206,89.206,0,0,1-5.681-15.175L6.454,155.483a6.916,6.916,0,0,1-6.337-6.156,7.051,7.051,0,0,1,3.835-7.606l11.913-6.381a94.873,94.873,0,0,1,.329-16.148L4.207,113.183a6.87,6.87,0,0,1-3.864-7.716A7.686,7.686,0,0,1,6.781,99.59l13.33-1.978a84.38,84.38,0,0,1,5.816-15.36L16.91,72.521a6.9,6.9,0,0,1-.94-8.506,7.209,7.209,0,0,1,7.989-3.455L37.07,63.345A87.462,87.462,0,0,1,47.739,50.73l-4.917-12.3a7.147,7.147,0,0,1,1.918-8.3,7.3,7.3,0,0,1,8.753-.58l11.363,7.07a96.586,96.586,0,0,1,14.265-8.395L78.708,14.87A6.949,6.949,0,0,1,83.4,8.006a7.214,7.214,0,0,1,8.611,2.3l8.078,10.229a127.9,127.9,0,0,1,16.255-2.768L120.453,5.3a7.174,7.174,0,0,1,7-5.3c3.57.09,6.118,1.917,7,5.247l4.067,12.2A160.346,160.346,0,0,1,154.707,20.3l8.358-10.449a7.283,7.283,0,0,1,8.328-2.492,7.04,7.04,0,0,1,4.764,7.068l-.591,13.3c.915.472,1.789.9,2.648,1.329,1.562.773,3.077,1.523,4.7,2.444,1.526.863,3,1.808,4.5,2.77.793.507,1.593,1.019,2.411,1.527l11.518-7.247a7.309,7.309,0,0,1,8.573.6,7.2,7.2,0,0,1,1.961,8.312l-5.058,12.316a143.555,143.555,0,0,1,10.512,12.248l12.975-2.693A7.063,7.063,0,0,1,238.4,62.75a6.855,6.855,0,0,1-1.124,8.5l-9.02,9.817a121.345,121.345,0,0,1,5.68,15.175l13.081,1.74a7.129,7.129,0,0,1,6.336,6.156,6.906,6.906,0,0,1-3.722,7.413l-12.01,6.326a92.273,92.273,0,0,1-.288,16.3l11.931,6.106a6.778,6.778,0,0,1,3.767,7.662,7.123,7.123,0,0,1-6.285,5.834l-13.331,1.978a95.939,95.939,0,0,1-5.719,15.415l8.921,9.677a6.9,6.9,0,0,1,.94,8.506,7.209,7.209,0,0,1-7.989,3.456l-13.015-2.731a95.737,95.737,0,0,1-10.766,12.56l4.917,12.3a7.1,7.1,0,0,1-2.071,8.346,6.945,6.945,0,0,1-8.656.634l-11.306-7.167a90.258,90.258,0,0,1-14.208,8.3l.413,13.352a7.251,7.251,0,0,1-4.806,7.057c-3.556,1.2-6.574.4-8.61-2.3l-7.964-10.421a94.053,94.053,0,0,1-16.255,2.768l-4.224,12.658a7.46,7.46,0,0,1-7.005,5.3,7.155,7.155,0,0,1-7-5.247L114.9,235.86a139.708,139.708,0,0,1-16.083-2.794L90.4,243.611a7.539,7.539,0,0,1-8.328,2.492,6.964,6.964,0,0,1-4.707-7.164l.591-13.3Zm70.122-97.089a21.1,21.1,0,0,1-8.464,15.277L199.5,177.728c-26.956,37.616-77.45,49.955-118.506,26.733a87.985,87.985,0,0,1-29.342-26.63l52.9-28.726,9.208-5.7a21.086,21.086,0,0,1-8.109-15.32L96,133.977,43.3,162.565c-10.432-24.679-9.068-54,6-79.568a92.017,92.017,0,0,1,68.512-45.108l-.688,70.026a21.178,21.178,0,0,1,17.527-.77l.812-69.561a89.266,89.266,0,0,1,37.166,11.376c40.862,23.112,55.258,72.028,35.736,113.72Z" transform="matrix(0.819, 0.574, -0.574, 0.819, 140.002, -17.544)" fill="#fff" fill-rule="evenodd"/>
    </g>
  </g>
</svg>
