<svg xmlns="http://www.w3.org/2000/svg" width="256" height="256" viewBox="0 0 256 256">
  <g id="icon_learn" transform="translate(-3598 1414)">
    <rect id="Rectangle_30" data-name="Rectangle 30" width="256" height="256" transform="translate(3598 -1414)" fill="rgba(149,0,0,0)"/>
    <g id="Group_22" data-name="Group 22">
      <path id="Path_183" data-name="Path 183" d="M-695.176-79.345a114.128,114.128,0,0,1-21.587-6.727A114.877,114.877,0,0,1-736.3-96.717a115.936,115.936,0,0,1-17.02-14.1A116.194,116.194,0,0,1-767.36-127.9a115.533,115.533,0,0,1-10.6-19.612,115.192,115.192,0,0,1-6.7-21.671A116.77,116.77,0,0,1-787-192.453a115.562,115.562,0,0,1,6.693-38.905,115.141,115.141,0,0,1,18.53-33.252,115.471,115.471,0,0,1,28.042-25.266A113.888,113.888,0,0,1-698.5-304.824v24.293c-38.352,11.654-65.137,47.873-65.137,88.079,0,50.73,41.111,92,91.641,92s91.641-41.272,91.641-92c0-.152,0-.3,0-.451h22.911v-9.828c.3,3.4.449,6.861.449,10.279a116.765,116.765,0,0,1-2.336,23.268,115.25,115.25,0,0,1-6.7,21.671,115.538,115.538,0,0,1-10.6,19.612,116.194,116.194,0,0,1-14.042,17.086,115.939,115.939,0,0,1-17.02,14.1,114.876,114.876,0,0,1-19.534,10.645,114.13,114.13,0,0,1-21.587,6.727A115.431,115.431,0,0,1-672-77,115.422,115.422,0,0,1-695.176-79.345ZM-580.358-192.9A11.66,11.66,0,0,1-568.587-204.2a11.677,11.677,0,0,1,11.137,8.438v2.855Zm-4.176-27.873a90.643,90.643,0,0,0-5.329-13.2,11.613,11.613,0,0,1,5.266-15.594,11.7,11.7,0,0,1,15.656,5.245q1.908,3.825,3.533,7.808v0l.051.126,0,0,.024.059a.057.057,0,0,0,0,.009l.024.058h0l.023.058a.078.078,0,0,1,0,.012l.023.058a.011.011,0,0,1,0,0l.023.054a.071.071,0,0,0,0,.011c.008.019.015.037.023.056l0,.011c.006.018.014.035.021.053s0,0,0,.007.015.037.023.055,0,.007.006.015l.022.055a.039.039,0,0,1,0,.011c.007.016.014.032.02.05a.084.084,0,0,1,0,.012l.022.054s.006.014.006.018.013.031.019.046l0,.01.021.053c0,.007,0,.013.008.02s.013.034.02.052l.006.015.017.042.007.02c.007.017.013.033.02.05a.2.2,0,0,0,.008.019l.015.039.01.025c0,.014.01.028.016.041l.01.024.015.038c0,.01.01.024.013.033l.012.031.01.026c.006.015.011.03.018.045l.01.028c0,.009.007.02.011.028s.01.027.015.041.008.019.011.028l.012.03a.3.3,0,0,0,.011.029l.016.042c0,.009.006.018.01.027s.01.028.018.045l.01.025.013.033a.16.16,0,0,1,.006.019c.008.02.015.036.022.056l.007.018c0,.014.007.019.013.033l.007.019.021.054a.164.164,0,0,0,.008.021l.042.109,0,.012.027.068,0,.007c.006.014.01.025.015.039l0,0,.027.071,0,.013c.015.037.03.078.044.115l0,0c.01.028.019.05.029.077v0l.044.118,0,.008.044.119v0l.075.2,0,.007c.041.11.08.214.12.324l0,0,.12.326s0,0,0,0c.242.658.475,1.313.706,1.976l0,.007.042.121h0c.024.069.046.132.07.2l0,.01c.014.038.028.08.04.118l0,.007.023.068,0,.014.012.037s0,.007,0,.011l.021.063.007.02c.006.02.013.04.02.06l0,.015c0,.011.008.024.012.035l.006.018.019.057.006.019.011.034,0,.014.021.061a.187.187,0,0,0,.006.021l.017.05c0,.008.006.016.009.025s.006.021.01.031l.008.027.015.045c0,.009.006.019.009.028s.006.019.011.03.01.03.015.045.006.018.008.025.007.023.011.033l.008.024c0,.016.01.032.015.048l.009.025.012.037c0,.007.008.024.01.031s.009.026.013.038l.007.023.017.052a.123.123,0,0,1,.006.016c.006.015.01.031.015.046l0,.014c.006.019.012.037.018.055l.006.017c.006.019.013.038.019.057h0c.006.02.012.04.019.059,0,0,0,.01,0,.013l.019.058,0,.008.019.057,0,.007c.007.02.014.041.02.061l0,.008.041.127,0,0c.006.022.014.044.021.066.015.045.029.089.043.134.072.224.143.447.214.671a11.625,11.625,0,0,1-7.652,14.58,11.719,11.719,0,0,1-3.5.535A11.678,11.678,0,0,1-584.534-220.778Zm-21.847-36.377a92.5,92.5,0,0,0-10.766-9.413,11.6,11.6,0,0,1-2.35-16.284,11.711,11.711,0,0,1,16.343-2.345l.023.017.017.012.044.033.019.014.028.021.015.011.047.036.017.012.044.033.019.014.027.02.022.017.04.029.021.015.038.029.023.017.027.02.022.016.036.028.024.019.024.018.038.029.023.017.024.018.036.028.026.019.023.017.035.027.026.02.024.019.023.017.038.028.024.019.027.02.032.024.027.021.021.016.04.031.019.015.029.022.026.019.033.025.02.016.039.029.021.016.029.023.019.015.04.031.02.016.035.026.021.016.033.026.018.013.042.032.018.014.032.025.02.016.039.03.016.012.043.033.016.012.034.026.015.011.043.033.018.014.042.033.011.009.039.03.015.011.044.034.015.011.04.032.007.006.047.037.012.01.048.037.007.006.046.036.006,0,.049.037.01.009.049.039h0l.05.038.007.007.049.039.007.006.049.038,0,0,.049.039.009.007.049.04,0,0,.05.04,0,0,.05.04.008.007.051.041.051.041.006,0,.051.041,0,0,.107.085h0l.053.042,0,0,.107.085,0,0,.434.349h0a115.381,115.381,0,0,1,8.81,7.9h0l.147.147,0,0,.093.093.007.007.044.044.008.008.038.038.008.008.041.041.012.011.04.041.012.012.032.033.013.013.038.038.017.017.032.032.017.017.028.029.019.018.035.036.019.019.021.022.034.034.019.019.023.023.018.019.038.038.014.014.083.084.008.008.051.052,0,0c.03.031.058.06.089.09h0l.034.034a11.6,11.6,0,0,1-.215,16.445,11.665,11.665,0,0,1-8.153,3.3A11.669,11.669,0,0,1-606.381-257.155Zm-35.962-22.683a91.382,91.382,0,0,0-13.834-3.528,11.638,11.638,0,0,1-9.508-13.453,11.676,11.676,0,0,1,13.489-9.474q5.064.876,9.968,2.184h0l.128.034h0l.127.034h0l.075.021.012,0,.12.032.01,0,.118.032.016,0,.061.017.018,0,.036.01.015,0,.064.018.016,0,.036.01.013,0,.063.017.022.006.053.015.024.007.033.01.023.006.048.014.028.008.03.008.037.011.036.01.032.008.027.008.049.014.023.006.037.011.021.007.052.015.021.006.045.013.023.006.044.012.018,0,.057.016.013,0,.049.013.015,0,.055.016.017,0,.052.015.007,0,.059.017.014,0,.06.017h0l.058.017.014,0,.059.017.007,0,.058.017.006,0,.062.018.006,0,.128.037,0,0q2.514.729,4.981,1.57a11.622,11.622,0,0,1,7.275,14.77,11.682,11.682,0,0,1-11.051,7.874A11.7,11.7,0,0,1-642.343-279.838ZM-698.5-304.927h0l.065-.015.007,0,.129-.031h.006l.133-.031h0l.068-.015.135-.031h0l.133-.031h0l.133-.03h0l.2-.046h0l.133-.03h0l.134-.03h0l.068-.015h0l.135-.03h0l.133-.029h0l.134-.029h0l.341-.074h0l.136-.029.205-.044h0l.137-.029.136-.028h0c.275-.058.55-.114.826-.17l.827-.163h0l.136-.026h0l.133-.026h0l.2-.039h0l.134-.025.006,0,.134-.025h0l.137-.026h0l.068-.012h0l.133-.024.006,0,.132-.024h.006l.134-.024h0l.066-.012h0l.133-.024.007,0,.131-.024h.006l.066-.012h0l.065-.011h.006l.065-.011.009,0,.061-.011h0l.063-.011.011,0,.125-.022.015,0,.061-.011.007,0,.057-.01.012,0,.061-.011.011,0,.056-.01.009,0,.061-.01.015,0,.059-.011h.006l.056-.01.019,0,.057-.009.016,0,.048-.008.016,0,.057-.01.018,0,.048-.008.015,0,.057-.01.019,0,.053-.009.013,0,.053-.009.019,0,.057-.009.018,0,.042-.007.023,0,.053-.009.023,0,.039-.006.022,0,.052-.008.026,0,.036-.006.04-.007.035-.006.028,0,.04-.007.036-.006.032,0,.028,0,.049-.007.031,0,.027,0,.051-.008.027,0,.034,0,.025,0,.055-.009.023,0,.035-.006.027,0,.053-.008.023,0,.036-.006.013,0,.066-.011.021,0,.068-.011.011,0,.038-.006.019,0,.061-.009.019,0,.038-.006.011,0,.074-.011.012,0,.126-.019h.006c.413-.062.829-.122,1.243-.179a11.673,11.673,0,0,1,13.161,9.924,11.642,11.642,0,0,1-9.962,13.123,91.71,91.71,0,0,0-13.748,3Z" transform="translate(4398 -1094)" fill="rgba(255,255,255,0.6)"/>
      <path id="Path_184" data-name="Path 184" d="M-660-169a25,25,0,0,1,25-25,25,25,0,0,1,25,25,25,25,0,0,1-25,25A25,25,0,0,1-660-169ZM-787-282a25,25,0,0,1,25-25,25,25,0,0,1,25,25,25,25,0,0,1-25,25A25,25,0,0,1-787-282Z" transform="translate(4464 -1107)" fill="#fff"/>
    </g>
  </g>
</svg>
