<svg xmlns="http://www.w3.org/2000/svg" width="256" height="256" viewBox="0 0 256 256">
  <g id="icon_throphy" transform="translate(-2433 -926)">
    <rect id="Rectangle_20" data-name="Rectangle 20" width="256" height="256" transform="translate(2433 926)" fill="rgba(255,255,255,0)"/>
    <path id="Path_220" data-name="Path 220" d="M-1924.12-64.147v0c3.143-3.788,6.766-12.4,9.252-18.964,2.651-7,4.67-13.4,4.689-13.463a17.522,17.522,0,0,1,4.083-11.465,12.946,12.946,0,0,1,9.857-4.749V-130a127.912,127.912,0,0,0,16.356.952,83.435,83.435,0,0,0,11.524-.647v16.9a12.944,12.944,0,0,1,9.857,4.749,17.518,17.518,0,0,1,4.083,11.465l0,.012c.21.665,2.124,6.691,4.685,13.451,2.485,6.559,6.108,15.173,9.249,18.964-.309-.043-21.921-.063-41.871-.063C-1902.4-64.212-1924.027-64.192-1924.12-64.147Z" transform="translate(4443.301 1198.955)" fill="rgba(255,255,255,0.6)"/>
    <path id="Path_219" data-name="Path 219" d="M-1821.9,96.237h-120.81c-5.125,0-9.294-4.849-9.294-10.81a23.37,23.37,0,0,1,5.444-15.286,17.258,17.258,0,0,1,13.142-6.332h9.293c-.063-.087,83.549-.087,83.64,0h9.293a17.259,17.259,0,0,1,13.142,6.332,23.371,23.371,0,0,1,5.444,15.287C-1812.6,91.388-1816.771,96.237-1821.9,96.237Z" transform="translate(4443.301 1071)" fill="#fff"/>
    <path id="Path_217" data-name="Path 217" d="M-1911.463-19.6h0a47.434,47.434,0,0,1-7.945-3.8A58.181,58.181,0,0,1-1936.4-39.155a77.86,77.86,0,0,1-11.421-22.91A92.932,92.932,0,0,1-1952-89.922c0-.664.007-1.342.021-2.015a14.685,14.685,0,0,1,2.14-7.462,9.23,9.23,0,0,1,5.188-4.108c4.528-1.253,9.157-2.417,13.759-3.458-.072,15.476.087,32.967.429,46.79.255,10.389,6.321,21.972,11.363,29.86,2.854,4.464,5.728,8.289,7.636,10.712Zm91.884-.264,0,0c1.894-2.4,4.743-6.186,7.564-10.62a85.563,85.563,0,0,0,8.384-16.573,64.965,64.965,0,0,0,2.553-18.082c.246-20.38.294-31.326.181-41.832,4.625,1.046,9.267,2.213,13.8,3.468a9.23,9.23,0,0,1,5.188,4.108,14.683,14.683,0,0,1,2.139,7.462c.014.658.022,1.336.022,2.015a92.936,92.936,0,0,1-4.179,27.857,77.887,77.887,0,0,1-11.421,22.91A58.2,58.2,0,0,1-1812.335-23.4a47.674,47.674,0,0,1-7.241,3.533Z" transform="translate(4427.432 1071)" fill="rgba(255,255,255,0.4)"/>
    <path id="Path_212" data-name="Path 212" d="M-1817.727-1.092h0a115.244,115.244,0,0,1-18.13-1.237A64.532,64.532,0,0,1-1850.164-7.9a65.073,65.073,0,0,1-12.423-8.637l-.064,0h-.035a135.639,135.639,0,0,1-10.125-13.773c-5.043-7.889-11.108-19.473-11.363-29.86-.357-14.478-.6-37.173-.325-58.651a8.011,8.011,0,0,1,7.11-8A526.709,526.709,0,0,1-1819.643-130a526.686,526.686,0,0,1,57.748,3.177,8.011,8.011,0,0,1,7.109,8c.283,15.3.353,24.489,0,53.684a64.954,64.954,0,0,1-2.553,18.082,85.547,85.547,0,0,1-8.385,16.573,128.332,128.332,0,0,1-10.216,13.855l.148.059-.022,0c-.3.011-.588.023-.886.032A65.064,65.064,0,0,1-1789.121-7.9a64.528,64.528,0,0,1-14.307,5.573C-1805.916-1.543-1811.127-1.092-1817.727-1.092Z" transform="translate(4381.143 1071)" fill="#fff"/>
  </g>
</svg>
