<svg xmlns="http://www.w3.org/2000/svg" width="256" height="256" viewBox="0 0 256 256">
  <g id="icon_delete" transform="translate(-2433 -926)">
    <rect id="Rectangle_20" data-name="Rectangle 20" width="256" height="256" transform="translate(2433 926)" fill="rgba(0,0,0,0)"/>
    <g id="Group_15" data-name="Group 15" transform="translate(-751.66 -31)">
      <path id="Path_181" data-name="Path 181" d="M162.854,205.283H38.457a22.116,22.116,0,0,1-15.521-6.256,20.934,20.934,0,0,1-6.429-15.1L0,21.359a20.933,20.933,0,0,1,6.429-15.1A22.116,22.116,0,0,1,21.95,0H177.295a22.116,22.116,0,0,1,15.521,6.256,20.934,20.934,0,0,1,6.429,15.1L184.8,183.924a20.934,20.934,0,0,1-6.429,15.1A22.116,22.116,0,0,1,162.854,205.283ZM135.14,24.191a12.028,12.028,0,0,0-12.061,11.654l-4.635,132.749a12.089,12.089,0,0,0,11.646,12.489c.135.005.276.008.429.008a12.025,12.025,0,0,0,12.06-11.654l4.636-132.749A12.075,12.075,0,0,0,135.569,24.2C135.426,24.194,135.282,24.191,135.14,24.191Zm-69.829,0c-.143,0-.287,0-.429.007A12.089,12.089,0,0,0,53.236,36.688l4.635,132.749a12.025,12.025,0,0,0,12.059,11.654c.154,0,.295,0,.43-.008a12.089,12.089,0,0,0,11.647-12.489L77.372,35.845A12.026,12.026,0,0,0,65.311,24.191Z" transform="translate(3212.434 1007.717)" fill="#fff"/>
      <path id="Path_179" data-name="Path 179" d="M8.453,41.057A8.453,8.453,0,0,1,0,32.6,16.906,16.906,0,0,1,16.906,15.7H44.679A15.7,15.7,0,0,1,60.378,0h90.566a15.7,15.7,0,0,1,15.7,15.7h27.774A16.906,16.906,0,0,1,211.32,32.6a8.452,8.452,0,0,1-8.452,8.453Z" transform="translate(3207 957)" fill="#fff"/>
      <path id="Path_180" data-name="Path 180" d="M77.2,157.235a12.075,12.075,0,0,1-11.646-12.489L70.193,12a12.076,12.076,0,0,1,24.137.843L89.693,145.589a12.076,12.076,0,0,1-12.061,11.654C77.49,157.243,77.348,157.24,77.2,157.235ZM4.986,145.589.35,12.84A12.075,12.075,0,0,1,24.486,12l4.636,132.749a12.075,12.075,0,0,1-11.647,12.489c-.143,0-.287.007-.429.007A12.076,12.076,0,0,1,4.986,145.589Z" transform="translate(3265.32 1031.565)" fill="rgba(255,255,255,0.2)"/>
    </g>
  </g>
</svg>
