<svg xmlns="http://www.w3.org/2000/svg" width="256.001" height="256" viewBox="0 0 256.001 256">
  <g id="icon_privacybuddy" transform="translate(-2432.999 -926)">
    <rect id="Rectangle_20" data-name="Rectangle 20" width="256" height="256" transform="translate(2433 926)" fill="rgba(0,0,0,0)"/>
    <g id="Privacy_Icon_iOS_Buddy" data-name="Privacy Icon_iOS Buddy" transform="translate(2428 944.376)">
      <path id="Path_203" data-name="Path 203" d="M-9291.588,2107.522c-15.859-1.58-26.413-14.252-26.413-29.657,0-16.51,12.135-29.864,29.867-29.864,15.645,0,26.952,10.41,29.371,24.176a30.748,30.748,0,0,1,.5,5.509v.179c0,16.513-12.118,29.867-29.867,29.867-.11,0-.217,0-.326,0A23.317,23.317,0,0,1-9291.588,2107.522Z" transform="translate(9348.601 -2027.977)" fill="rgba(255,255,255,0.6)"/>
      <path id="Path_205" data-name="Path 205" d="M-9288.135,2107.729c-17.75,0-29.865-13.353-29.865-29.865a30.56,30.56,0,0,1,.526-5.687c2.432-13.768,13.7-24.178,29.339-24.178,17.748,0,29.868,13.356,29.868,29.865,0,15.4-10.522,28.072-26.412,29.652a22.271,22.271,0,0,1-3.122.216C-9287.913,2107.733-9288.024,2107.733-9288.135,2107.729Z" transform="translate(9490.254 -2027.975)" fill="rgba(255,255,255,0.4)"/>
      <path id="Path_206" data-name="Path 206" d="M-9262.044,2162.347a4.591,4.591,0,0,1-3.186-1.258,3.8,3.8,0,0,1-1.182-2.678c0-.1,0-.206.008-.308.327-4.671.566-10.89.566-14.872q.01-.586.011-1.17a72.482,72.482,0,0,0-.881-11.273,80.094,80.094,0,0,1-10.6,5.554c-1.18.56-2.407,1.025-3.637,1.556s-2.355.887-3.583,1.306-2.611.84-3.943,1.211-2.253.606-3.41.887c-.769.185-1.487.375-2.254.513s-2,.422-3.021.607c-2,.327-4.047.651-6.146.841-.612.094-1.278.141-1.945.185q-.189-3.388-.191-6.781t.191-6.781a.976.976,0,0,0,0-.12,2.2,2.2,0,0,0-.706-1.6,2.668,2.668,0,0,0-1.86-.706h-7.594a2.739,2.739,0,0,1-1.864-.717,2.27,2.27,0,0,1-.729-1.663c0-.021,0-.04,0-.061q-.007-.6-.008-1.193,0-4.177.415-8.339c1.536.138,3.177.186,4.761.186a41.634,41.634,0,0,0,4.813-.186h.412a54.14,54.14,0,0,0,18.069-4.9c.413-.186.771-.324,1.13-.513a16.9,16.9,0,0,0,2.1-1.121,56.017,56.017,0,0,0,5.729-3.637l1.386-1.121c11.163-9.55,13.519-22.924,17.562-34.217s9.73-20.466,27.426-21.866c48.8-3.742,49.314,88.721,49.321,108.793v.776a4.91,4.91,0,0,1-5.121,4.667Z" transform="translate(9445.873 -1963.123)" fill="rgba(255,255,255,0.6)"/>
      <path id="Path_204" data-name="Path 204" d="M-9312.879,2162.347a4.911,4.911,0,0,1-5.122-4.666v-.644c0-19.834.4-112.665,49.359-108.927,17.627,1.35,23.384,10.433,27.307,21.569,4.4,12.113,6.725,26.667,20.033,36.359a30.4,30.4,0,0,0,2.663,1.723c.615.422,1.229.746,1.9,1.12a24.587,24.587,0,0,0,2.766,1.4,53.912,53.912,0,0,0,19.3,5.255q-.437,4.286-.446,8.6c0,.3,0,.594,0,.891a2.472,2.472,0,0,0,2.577,2.316h7.661a2.662,2.662,0,0,1,1.86.717,2.214,2.214,0,0,1,.7,1.6c0,.04,0,.079,0,.119q-.195,3.385-.2,6.773t.2,6.773l-.016.047a14.794,14.794,0,0,1-2.049.138c-.51,0-1.075.095-1.707.095h-.1c-1.228,0-2.457.094-3.736.094s-2.507,0-3.742-.094h-.083c-.869,0-1.7-.095-2.5-.143h-1.183a12.893,12.893,0,0,1-1.944-.185c-2.1-.186-4.145-.513-6.142-.84-1.025-.186-2-.375-3.021-.607l-3.276-.7a49.019,49.019,0,0,1-6.927-2.116c-1.044-.389-2.085-.713-3.091-1.149s-2.256-.887-3.417-1.4a32.917,32.917,0,0,1-3.119-1.443c-.922-.422-1.792-.84-2.611-1.31s-1.709-.931-2.562-1.4a24.368,24.368,0,0,1-2.511-1.553,71.591,71.591,0,0,0-.879,11.27c0,.39,0,.781.009,1.171,0,3.982.224,10.139.547,14.725.01.106.014.213.014.32a3.925,3.925,0,0,1-1.2,2.782,4.73,4.73,0,0,1-3.3,1.316Z" transform="translate(9323 -1963.124)" fill="#fff"/>
    </g>
  </g>
</svg>
