<svg xmlns="http://www.w3.org/2000/svg" width="256" height="256" viewBox="0 0 256 256">
  <g id="icon_help" transform="translate(-2433 -926)">
    <rect id="Rectangle_20" data-name="Rectangle 20" width="256" height="256" transform="translate(2433 926)" fill="rgba(255,255,255,0)"/>
    <g id="Group_28" data-name="Group 28" transform="translate(10 10)">
      <path id="Path_210" data-name="Path 210" d="M-1844,403a118.87,118.87,0,0,1-23.781-2.4,117.4,117.4,0,0,1-22.15-6.876,118.016,118.016,0,0,1-20.044-10.88,118.864,118.864,0,0,1-17.464-14.409,118.849,118.849,0,0,1-14.409-17.464,118.008,118.008,0,0,1-10.879-20.044,117.407,117.407,0,0,1-6.876-22.15A118.87,118.87,0,0,1-1962,285a118.873,118.873,0,0,1,2.4-23.781,117.408,117.408,0,0,1,6.876-22.15,118.009,118.009,0,0,1,10.879-20.044,118.859,118.859,0,0,1,14.409-17.464,118.851,118.851,0,0,1,17.464-14.409,118.015,118.015,0,0,1,20.044-10.879,117.409,117.409,0,0,1,22.15-6.876A118.868,118.868,0,0,1-1844,167a118.872,118.872,0,0,1,23.781,2.4,117.406,117.406,0,0,1,22.15,6.876,118.015,118.015,0,0,1,20.044,10.879,118.853,118.853,0,0,1,17.464,14.409,118.856,118.856,0,0,1,14.409,17.464,118,118,0,0,1,10.879,20.044,117.4,117.4,0,0,1,6.876,22.15A118.864,118.864,0,0,1-1726,285a118.862,118.862,0,0,1-2.4,23.781,117.4,117.4,0,0,1-6.876,22.15,118,118,0,0,1-10.879,20.044,118.851,118.851,0,0,1-14.409,17.464,118.852,118.852,0,0,1-17.464,14.409,118.016,118.016,0,0,1-20.044,10.88,117.4,117.4,0,0,1-22.15,6.876A118.871,118.871,0,0,1-1844,403ZM-1856.094,355h0l0,0c.205.011.42.016.657.016a15.763,15.763,0,0,0,5.6-1.023,15.738,15.738,0,0,0,5.357-3.383,15.323,15.323,0,0,0,4.451-10.837,15.326,15.326,0,0,0-4.451-10.837,15.738,15.738,0,0,0-5.357-3.383,15.76,15.76,0,0,0-5.6-1.024c-.219,0-.441,0-.66.014-.207-.008-.417-.012-.624-.012a16.111,16.111,0,0,0-5.672,1.027,16.035,16.035,0,0,0-5.412,3.373,15.1,15.1,0,0,0-3.365,4.961,15.09,15.09,0,0,0-1.184,5.876,15.1,15.1,0,0,0,1.184,5.876,15.1,15.1,0,0,0,3.365,4.961,16.074,16.074,0,0,0,5.412,3.376,16.087,16.087,0,0,0,5.672,1.029c.206,0,.416,0,.623-.012Zm-3.288-76.537a8.936,8.936,0,0,0-6.467,2.737,8.937,8.937,0,0,0-2.538,6.549L-1868,300.2a9.955,9.955,0,0,0,9.994,9.692h6.313a7.3,7.3,0,0,0,7.311-7.014,7.5,7.5,0,0,1,2.258-5.02,8.547,8.547,0,0,1,5.07-2.392,62.369,62.369,0,0,0,16.478-4.126,34.223,34.223,0,0,0,15.87-13.088c3.788-5.83,5.709-13.32,5.709-22.26,0-8.681-1.921-16.17-5.709-22.259a36.475,36.475,0,0,0-15.87-13.956,53.8,53.8,0,0,0-22.277-4.794c-.346,0-.7,0-1.044.01-9.375,0-17.547,1.807-24.288,5.37a38.419,38.419,0,0,0-15.58,14.546,38.919,38.919,0,0,0-4.368,11.3,7.315,7.315,0,0,0,1.49,6.246,9.416,9.416,0,0,0,7.311,3.35h4.635c6.273,0,10.648-6.185,12.7-9.872l.094-.166.01-.017a18.084,18.084,0,0,1,6.967-6.639,22.361,22.361,0,0,1,10.155-2.45c.227,0,.457,0,.682.01.176,0,.356-.006.533-.006a22.246,22.246,0,0,1,9.921,2.348,16.515,16.515,0,0,1,6.871,6.639A20.832,20.832,0,0,1-1824.349,256c0,4.664-.911,8.507-2.709,11.423a17.83,17.83,0,0,1-7.455,6.737,37.945,37.945,0,0,1-11.128,3.318,91.377,91.377,0,0,1-13.313.978Z" transform="translate(4395 759)" fill="rgba(255,255,255,0.4)"/>
      <path id="Path_209" data-name="Path 209" d="M30.991,94.9A10,10,0,0,1,21,85.2l-.384-12.461a9.008,9.008,0,0,1,9-9.286,91.061,91.061,0,0,0,13.741-.976,38.007,38.007,0,0,0,11.128-3.319,17.855,17.855,0,0,0,7.454-6.736Q64.65,48.034,64.65,41a20.78,20.78,0,0,0-2.419-10.349,16.557,16.557,0,0,0-6.87-6.639,22.131,22.131,0,0,0-10.454-2.342,22.261,22.261,0,0,0-10.838,2.44A18.085,18.085,0,0,0,27.1,30.753l-.1.184c-2.737,4.923-7.064,9.872-12.7,9.872H9.666c-5.388,0-9.94-4.33-8.8-9.6a39,39,0,0,1,4.367-11.3A38.479,38.479,0,0,1,20.812,5.37Q30.973,0,45.1,0a54.149,54.149,0,0,1,23.32,4.784A36.582,36.582,0,0,1,84.291,18.74Q90,27.917,90,41q0,13.473-5.709,22.259a34.37,34.37,0,0,1-15.87,13.088,62.363,62.363,0,0,1-16.477,4.126,8.02,8.02,0,0,0-7.328,7.412A7.316,7.316,0,0,1,37.305,94.9ZM32.908,140a0,0,0,0,0,0,0A16.148,16.148,0,0,1,21.2,135.6a15.185,15.185,0,0,1,0-21.674,16.153,16.153,0,0,1,11.709-4.388,15.822,15.822,0,0,1,11.612,4.393,15.417,15.417,0,0,1,0,21.674A15.821,15.821,0,0,1,32.91,140,0,0,0,0,1,32.908,140Z" transform="translate(2506 974)" fill="#fff"/>
    </g>
  </g>
</svg>
