<svg xmlns="http://www.w3.org/2000/svg" width="256" height="256" viewBox="0 0 256 256">
  <g id="icon_create" transform="translate(-2433 -926)">
    <rect id="Rectangle_20" data-name="Rectangle 20" width="256" height="256" transform="translate(2433 926)" fill="rgba(255,255,255,0)"/>
    <g id="Group_28" data-name="Group 28" transform="translate(10 10)">
      <path id="Rectangle_20-2" data-name="Rectangle 20" d="M61.766,0H174.234A61.766,61.766,0,0,1,236,61.766V174.234A61.766,61.766,0,0,1,174.234,236H61.766A61.766,61.766,0,0,1,0,174.234V61.766A61.766,61.766,0,0,1,61.766,0Z" transform="translate(2433 926)" fill="rgba(255,255,255,0.4)"/>
      <path id="Path_207" data-name="Path 207" d="M-1885.5,624a9.626,9.626,0,0,1-9.626-9.626v-47.25h-47.25A9.625,9.625,0,0,1-1952,557.5v-7a9.625,9.625,0,0,1,9.625-9.625h47.25v-47.25A9.626,9.626,0,0,1-1885.5,484h7a9.625,9.625,0,0,1,9.626,9.625v47.25h47.25A9.625,9.625,0,0,1-1812,550.5v7a9.625,9.625,0,0,1-9.625,9.625h-47.25v47.25A9.626,9.626,0,0,1-1878.5,624Z" transform="translate(4433 490)" fill="#fff"/>
    </g>
  </g>
</svg>
