<svg xmlns="http://www.w3.org/2000/svg" width="256" height="256" viewBox="0 0 256 256">
  <g id="icon_sets" transform="translate(-3598 1414)">
    <rect id="Rectangle_30" data-name="Rectangle 30" width="256" height="256" transform="translate(3598 -1414)" fill="rgba(149,0,0,0)"/>
    <g id="Group_20" data-name="Group 20" transform="translate(-15 18)">
      <path id="Path_188" data-name="Path 188" d="M1781.337-778.882h0a33.3,33.3,0,0,1-5.766-.507l-105.483-18.6,93.315-16.454a32.783,32.783,0,0,0,21.3-13.57,32.783,32.783,0,0,0,5.467-24.658l-12.621-71.574,22.852,4.029a32.792,32.792,0,0,1,12.2,4.784,32.891,32.891,0,0,1,9.1,8.786,32.89,32.89,0,0,1,5.143,11.558,32.79,32.79,0,0,1,.324,13.1l-13.371,75.83a32.875,32.875,0,0,1-4.053,11.016,32.882,32.882,0,0,1-7.343,8.625A33.044,33.044,0,0,1,1781.337-778.882Zm-120.77-162.634v0a32.837,32.837,0,0,1,6.686-1.177Z" transform="translate(2034.05 -436.671)" fill="#fff"/>
      <rect id="Rectangle_33" data-name="Rectangle 33" width="193" height="143" rx="33" transform="matrix(0.985, -0.174, 0.174, 0.985, 3615.05, -1364.157)" fill="rgba(255,255,255,0.6)"/>
    </g>
  </g>
</svg>
