<svg xmlns="http://www.w3.org/2000/svg" width="256" height="256" viewBox="0 0 256 256">
  <g id="icon_share" transform="translate(-3598 1414)">
    <rect id="Rectangle_30" data-name="Rectangle 30" width="256" height="256" transform="translate(3598 -1414)" fill="rgba(149,0,0,0)"/>
    <g id="Group_21" data-name="Group 21" transform="translate(-8.135 -0.058)">
      <rect id="Rectangle_32" data-name="Rectangle 32" width="208" height="208" rx="41" transform="translate(3630 -1366)" fill="rgba(255,255,255,0.4)"/>
      <path id="Path_153" data-name="Path 153" d="M167.051,217.271H41.22A41.186,41.186,0,0,1,0,176.051V50.22A41.186,41.186,0,0,1,41.22,9H61.288V26.356H41.22A23.891,23.891,0,0,0,17.356,50.22V176.051A23.892,23.892,0,0,0,41.22,199.916H167.051a23.892,23.892,0,0,0,23.865-23.865V50.22a23.891,23.891,0,0,0-23.865-23.864H146.983V9h20.067a41.186,41.186,0,0,1,41.22,41.22V176.051a41.185,41.185,0,0,1-41.22,41.22Z" transform="translate(3630 -1375.271)" fill="rgba(255,255,255,0.6)"/>
      <rect id="Rectangle_31" data-name="Rectangle 31" width="18" height="132" rx="8" transform="translate(3725 -1363)" fill="rgba(255,255,255,0.6)"/>
      <path id="Path_152" data-name="Path 152" d="M24.814,5.373a7.5,7.5,0,0,1,2.879-3.645A7.166,7.166,0,0,1,31.748.57a7.344,7.344,0,0,1,4.042,1.3A7.831,7.831,0,0,1,38.645,5.6L62.21,67.658a8.153,8.153,0,0,1-.718,7.249,7.64,7.64,0,0,1-2.537,2.5,6.986,6.986,0,0,1-3.518.991l-47.813.565a7.25,7.25,0,0,1-3.659-.927,7.653,7.653,0,0,1-2.65-2.5A8.1,8.1,0,0,1,.054,72.045a8.2,8.2,0,0,1,.508-3.912Z" transform="translate(3702.751 -1413.942)" fill="#fff"/>
    </g>
  </g>
</svg>
