<svg xmlns="http://www.w3.org/2000/svg" width="256" height="256" viewBox="0 0 256 256">
  <g id="icon_edit" transform="translate(-2854 -327)">
    <rect id="Rectangle_17" data-name="Rectangle 17" width="256" height="256" transform="translate(2854 327)" fill="rgba(152,37,37,0)"/>
    <g id="Group_13" data-name="Group 13" transform="translate(1530.88 -2032.955) rotate(45)">
      <path id="Path_170" data-name="Path 170" d="M351.51,267.133a7.932,7.932,0,0,1-3.778-.941,7.022,7.022,0,0,1-2.831-2.824l-17.6-32.459a6.366,6.366,0,0,1-.779-2.688H376.5a6.384,6.384,0,0,1-.779,2.688l-17.6,32.459a7.032,7.032,0,0,1-2.831,2.824A7.929,7.929,0,0,1,351.51,267.133Zm25-54.655h-50V-20.477a21.345,21.345,0,0,1,1.965-8.969,22.954,22.954,0,0,1,5.358-7.324,25.113,25.113,0,0,1,7.947-4.938,26.682,26.682,0,0,1,9.731-1.811,26.682,26.682,0,0,1,9.731,1.811,25.113,25.113,0,0,1,7.947,4.938,22.955,22.955,0,0,1,5.358,7.324,21.359,21.359,0,0,1,1.965,8.969V212.477Zm-24.5-237.083c-4.687,0-8.5,3.515-8.5,7.834v216.6c0,4.32,3.813,7.835,8.5,7.835s8.5-3.515,8.5-7.835v-216.6C360.51-21.091,356.7-24.606,352.011-24.606Z" transform="translate(2433.49 621)" fill="#fff"/>
      <rect id="Rectangle_19" data-name="Rectangle 19" width="17" height="232.271" rx="8.5" transform="translate(2777 596.393)" fill="rgba(255,255,255,0.8)"/>
    </g>
  </g>
</svg>
