<svg xmlns="http://www.w3.org/2000/svg" width="256" height="256" viewBox="0 0 256 256">
  <g id="icon_minimize" transform="translate(-2433 -926)">
    <rect id="Rectangle_20" data-name="Rectangle 20" width="256" height="256" transform="translate(2433 926)" fill="rgba(255,255,255,0)"/>
    <path id="Rectangle_20-2" data-name="Rectangle 20" d="M61.766,0H174.234A61.766,61.766,0,0,1,236,61.766V174.234A61.766,61.766,0,0,1,174.234,236H61.766A61.766,61.766,0,0,1,0,174.234V61.766A61.766,61.766,0,0,1,61.766,0Z" transform="translate(2443 936)" fill="rgba(255,255,255,0.4)"/>
    <path id="Path_237" data-name="Path 237" d="M-1932.7-838.461l76.775-76.775,20.506,20.506-76.775,76.775A62.07,62.07,0,0,1-1932.7-838.461Zm122.9-122.9,74.488-74.489a62.074,62.074,0,0,1,20.507,20.506l-74.489,74.488Z" transform="translate(4384.747 1980.903)" fill="rgba(255,255,255,0.4)"/>
    <path id="Path_235" data-name="Path 235" d="M-1952-667.5v-14.734A61.766,61.766,0,0,1-1890.234-744h14.734a14.5,14.5,0,0,1,14.5,14.5,14.5,14.5,0,0,1-14.5,14.5h-14.734A32.8,32.8,0,0,0-1923-682.234V-667.5a14.5,14.5,0,0,1-14.5,14.5A14.5,14.5,0,0,1-1952-667.5Z" transform="translate(3299 -895) rotate(-90)" fill="#fff"/>
    <path id="Path_236" data-name="Path 236" d="M-1952-667.5v-14.734A61.766,61.766,0,0,1-1890.234-744h14.734a14.5,14.5,0,0,1,14.5,14.5,14.5,14.5,0,0,1-14.5,14.5h-14.734A32.8,32.8,0,0,0-1923-682.234V-667.5a14.5,14.5,0,0,1-14.5,14.5A14.5,14.5,0,0,1-1952-667.5Z" transform="translate(1827 2998) rotate(90)" fill="#fff"/>
  </g>
</svg>
