<svg id="icon_files" xmlns="http://www.w3.org/2000/svg" width="256" height="191.999" viewBox="0 0 256 191.999">
  <g id="bestanden">
    <path id="Path_148" data-name="Path 148" d="M30.929,34.717c0-16.265,14.014-29.451,31.3-29.451h193.4c17.288,0,31.3,13.186,31.3,29.451V158.634c0,16.265-14.014,29.451-31.3,29.451H62.23c-17.287,0-31.3-13.186-31.3-29.451Z" transform="translate(-30.929 3.914)" fill="rgba(255,255,255,0.2)"/>
    <rect id="Rectangle_4" data-name="Rectangle 4" width="216" height="141" rx="14" transform="translate(22 34)" fill="rgba(255,255,255,0.4)"/>
    <path id="Path_150" data-name="Path 150" d="M0,25.239C0,11.3,11.051,0,24.683,0H85.475A55.171,55.171,0,0,1,130.71,23.844l2.625,3.768A55.171,55.171,0,0,0,178.57,51.456h52.747c13.632,0,24.684,11.3,24.684,25.239v90.066C256,180.7,244.949,192,231.316,192H24.683C11.051,192,0,180.7,0,166.761Z" fill="#fff"/>
  </g>
</svg>
