<svg xmlns="http://www.w3.org/2000/svg" width="256" height="256" viewBox="0 0 256 256">
  <g id="icon_offline" transform="translate(-2433 -926)">
    <rect id="Rectangle_20" data-name="Rectangle 20" width="256" height="256" transform="translate(2433 926)" fill="rgba(0,0,0,0)"/>
    <g id="Group_24" data-name="Group 24" transform="translate(-13 -10.951)">
      <g id="Group_23" data-name="Group 23" transform="translate(2446 982.586)">
        <path id="Path_189" data-name="Path 189" d="M-968.054,3078.278a15.411,15.411,0,0,1-12.337-6.617,83.987,83.987,0,0,0-24.246-16.065,79.023,79.023,0,0,0-32.126-6.6,79.015,79.015,0,0,0-32.125,6.6,84.011,84.011,0,0,0-24.245,16.063,15.406,15.406,0,0,1-12.609,6.62,15.751,15.751,0,0,1-15.545-15.949,16.118,16.118,0,0,1,4.354-11.072l-.143-.149a114.738,114.738,0,0,1,35.882-24.673,108.651,108.651,0,0,1,44.431-9.1,107.329,107.329,0,0,1,44.432,9.236,114.61,114.61,0,0,1,33.691,22.86,16.074,16.074,0,0,1,6.4,13.18,15.744,15.744,0,0,1-15.537,15.672Zm43.485-45.364a15.169,15.169,0,0,1-12.12-6.479,146.062,146.062,0,0,0-43.724-29.29,139.292,139.292,0,0,0-56.349-11.479,139.287,139.287,0,0,0-56.349,11.479,146.1,146.1,0,0,0-46.245,31.8l-.08-.082a15.033,15.033,0,0,1-10.257,4.055l-.273,0A15.523,15.523,0,0,1-1165,3016.941a15.833,15.833,0,0,1,5.174-11.5,172.724,172.724,0,0,1,54.407-37.458A168.924,168.924,0,0,1-1036.762,2954a168.925,168.925,0,0,1,68.656,13.987,172.719,172.719,0,0,1,55.7,38.791l-.25.255A15.89,15.89,0,0,1-909,3017.489a15.5,15.5,0,0,1-15.294,15.428Z" transform="translate(1165 -2953.999)" fill="rgba(255,255,255,0.4)"/>
        <path id="Path_190" data-name="Path 190" d="M-1052.151,3125.074a24.761,24.761,0,0,1-7.519-18.275,24.763,24.763,0,0,1,7.519-18.276,25.136,25.136,0,0,1,18.411-7.464,25.133,25.133,0,0,1,18.411,7.464,24.76,24.76,0,0,1,7.52,18.276,24.759,24.759,0,0,1-7.52,18.275,25.133,25.133,0,0,1-18.411,7.464A25.135,25.135,0,0,1-1052.151,3125.074Z" transform="translate(1161.979 -2954.451)" fill="rgba(255,255,255,0.6)"/>
      </g>
      <rect id="Rectangle_47" data-name="Rectangle 47" width="22.261" height="282.713" rx="11.13" transform="translate(2666.084 957.126) rotate(45)" fill="#fff"/>
    </g>
  </g>
</svg>
