<svg xmlns="http://www.w3.org/2000/svg" width="256.001" height="256" viewBox="0 0 256.001 256">
  <g id="icon_undo" transform="translate(-2433 -926)">
    <rect id="Rectangle_20" data-name="Rectangle 20" width="256" height="256" transform="translate(2433 926)" fill="rgba(0,0,0,0)"/>
    <g id="Group_16" data-name="Group 16" transform="translate(-0.196 -1.422)">
      <path id="Path_187" data-name="Path 187" d="M-714.7-164.6h-3.543A14.692,14.692,0,0,1-733-179.223a14.693,14.693,0,0,1,14.759-14.625H-554.7A41.187,41.187,0,0,0-513.373-234.8,41.187,41.187,0,0,0-554.7-275.75H-715.879V-305H-554.7a70.972,70.972,0,0,1,27.577,5.517,70.66,70.66,0,0,1,22.52,15.045,69.936,69.936,0,0,1,15.183,22.315,69.213,69.213,0,0,1,5.568,27.325,69.223,69.223,0,0,1-5.568,27.326,69.959,69.959,0,0,1-15.18,22.313,70.678,70.678,0,0,1-22.52,15.045A70.973,70.973,0,0,1-554.7-164.6Z" transform="translate(3173.049 1302.597)" fill="rgba(255,255,255,0.6)"/>
      <path id="Path_188" data-name="Path 188" d="M30.7,5.914a9.329,9.329,0,0,1,17.362,0L78.069,81.021A9.438,9.438,0,0,1,69.388,94H9.37A9.438,9.438,0,0,1,.688,81.021Z" transform="translate(2433.196 1051.601) rotate(-90)" fill="#fff"/>
    </g>
  </g>
</svg>
