<svg xmlns="http://www.w3.org/2000/svg" width="256" height="256" viewBox="0 0 256 256">
  <g id="icon_configuration" transform="translate(-2433 -926)">
    <rect id="Rectangle_20" data-name="Rectangle 20" width="256" height="256" transform="translate(2433 926)" fill="rgba(0,0,0,0)"/>
    <path id="Subtraction_1" data-name="Subtraction 1" d="M-2498,2168h-169.013a29.993,29.993,0,0,0,4.013-15,29.989,29.989,0,0,0-4.013-15H-2498a14.9,14.9,0,0,1,10.606,4.394A14.9,14.9,0,0,1-2483,2153a14.9,14.9,0,0,1-4.393,10.606A14.9,14.9,0,0,1-2498,2168Zm-220.987,0H-2724a14.9,14.9,0,0,1-10.606-4.393A14.9,14.9,0,0,1-2739,2153a14.9,14.9,0,0,1,4.393-10.606A14.9,14.9,0,0,1-2724,2138h5.015a29.985,29.985,0,0,0-4.014,15,29.992,29.992,0,0,0,4.012,15ZM-2498,2078h-25.013a29.993,29.993,0,0,0,4.013-15,29.993,29.993,0,0,0-4.013-15H-2498a14.9,14.9,0,0,1,10.606,4.394A14.9,14.9,0,0,1-2483,2063a14.9,14.9,0,0,1-4.393,10.605A14.9,14.9,0,0,1-2498,2078Zm-76.987,0H-2724a14.9,14.9,0,0,1-10.606-4.393A14.9,14.9,0,0,1-2739,2063a14.9,14.9,0,0,1,4.393-10.607A14.9,14.9,0,0,1-2724,2048h149.014a29.989,29.989,0,0,0-4.013,15,29.992,29.992,0,0,0,4.012,15Z" transform="translate(5172 -1054)" fill="rgba(255,255,255,0.6)"/>
    <rect id="Rectangle_56" data-name="Rectangle 56" width="60" height="60" rx="30" transform="translate(2593 979)" fill="rgba(255,255,255,0.4)"/>
    <rect id="Rectangle_55" data-name="Rectangle 55" width="60" height="60" rx="30" transform="translate(2449 1069)" fill="rgba(255,255,255,0.4)"/>
    <path id="Rectangle_53" data-name="Rectangle 53" d="M30,16A14,14,0,1,0,44,30,14.016,14.016,0,0,0,30,16M30,0A30,30,0,1,1,0,30,30,30,0,0,1,30,0Z" transform="translate(2593 979)" fill="#fff"/>
    <path id="Rectangle_54" data-name="Rectangle 54" d="M30,16A14,14,0,1,0,44,30,14.016,14.016,0,0,0,30,16M30,0A30,30,0,1,1,0,30,30,30,0,0,1,30,0Z" transform="translate(2449 1069)" fill="#fff"/>
  </g>
</svg>
